<?xml version="1.0" encoding="iso-8859-1"?>
<!-- Generator: Adobe Illustrator 19.0.0, SVG Export Plug-In . SVG Version: 6.00 Build 0)  -->
<svg version="1.1" id="Layer_1" xmlns="http://www.w3.org/2000/svg" xmlns:xlink="http://www.w3.org/1999/xlink" x="0px" y="0px"
	 viewBox="0 0 512 512" style="enable-background:new 0 0 512 512;" xml:space="preserve">
<circle style="fill:#263A7A;" cx="256" cy="256" r="256"/>
<path style="fill:#121149;" d="M341.333,113.778l-160.09,272.905l121.118,121.118c110.58-20.23,196.334-111.5,208.22-224.777
	L341.333,113.778z"/>
<g>
	<path style="fill:#FF7F4F;" d="M208.306,398.222h95.389c20.787,0,37.64-16.851,37.64-37.638V113.778H170.667v246.806
		C170.667,381.371,187.518,398.222,208.306,398.222z"/>
	<path style="fill:#FF7F4F;" d="M369.204,322.37h-55.741c-21.228,0-38.5-17.272-38.5-38.5v-84.185c0-21.228,17.272-38.5,38.5-38.5
		h55.741c21.228,0,38.5,17.272,38.5,38.5v84.185C407.704,305.099,390.432,322.37,369.204,322.37z M313.463,180.148
		c-10.773,0-19.537,8.764-19.537,19.537v84.185c0,10.773,8.764,19.537,19.537,19.537h55.741c10.773,0,19.537-8.764,19.537-19.537
		v-84.185c0-10.773-8.764-19.537-19.537-19.537L313.463,180.148L313.463,180.148z"/>
</g>
<path style="fill:#FF5419;" d="M256,113.778v284.444h47.694c20.787,0,37.638-16.851,37.638-37.638V113.778H256z"/>
<g>
</g>
<g>
</g>
<g>
</g>
<g>
</g>
<g>
</g>
<g>
</g>
<g>
</g>
<g>
</g>
<g>
</g>
<g>
</g>
<g>
</g>
<g>
</g>
<g>
</g>
<g>
</g>
<g>
</g>
</svg>
