<?xml version="1.0" encoding="iso-8859-1"?>
<!-- Generator: Adobe Illustrator 19.0.0, SVG Export Plug-In . SVG Version: 6.00 Build 0)  -->
<svg version="1.1" id="Layer_1" xmlns="http://www.w3.org/2000/svg" xmlns:xlink="http://www.w3.org/1999/xlink" x="0px" y="0px"
	 viewBox="0 0 512.002 512.002" style="enable-background:new 0 0 512.002 512.002;" xml:space="preserve">
<circle style="fill:#273B7A;" cx="256.001" cy="256" r="256"/>
<rect x="244.951" y="42.798" style="fill:#6293BC;" width="22.111" height="36.202"/>
<rect x="256.001" y="42.798" style="fill:#386895;" width="11.055" height="36.202"/>
<path style="fill:#121149;" d="M300.048,84.456c-2.112,0.783-3.589-0.003-5.258-0.003c-24.135,12.067-59.476,2.607-68.096,30.189
	c-12.067,51.717-10.343,103.434-20.687,156.875c-10.343,41.374-24.135,75.852-31.03,118.949
	c-1.724,15.515-9.89,26.446-13.338,41.962c-0.488,1.708,0.752,8.137,0.729,9.787l68.565,68.563
	c8.249,0.802,16.61,1.224,25.069,1.224c131.239,0,239.394-98.763,254.243-226.014L300.048,84.456z"/>
<path style="fill:#386895;" d="M293.98,133.323L354.6,337.917c9.866,33.296,8.559,70.042-3.631,102.155l0,0
	c-1.888,4.972-7.728,4.658-9.254-0.498l-83.265-281.426L293.98,133.323z"/>
<path style="fill:#6293BC;" d="M218.021,133.323l-60.619,204.593c-9.866,33.296-8.559,70.042,3.631,102.155l0,0
	c1.888,4.972,7.728,4.658,9.254-0.498l83.266-281.426L218.021,133.323z"/>
<path style="fill:#71E2EF;" d="M256.001,66.114c-34.275,0-62.061,27.786-62.061,62.061s27.786,62.061,62.061,62.061
	s62.061-27.786,62.061-62.061S290.276,66.114,256.001,66.114z M256.001,148.861c-11.424,0-20.687-9.263-20.687-20.687
	c0-11.424,9.263-20.687,20.687-20.687s20.687,9.263,20.687,20.687C276.688,139.598,267.425,148.861,256.001,148.861z"/>
<path style="fill:#30C3CE;" d="M318.061,128.174c0-34.275-27.786-62.061-62.061-62.061v41.374c11.424,0,20.687,9.263,20.687,20.687
	c0,11.424-9.261,20.687-20.687,20.687v41.374C290.276,190.235,318.061,162.449,318.061,128.174z"/>
<g>
</g>
<g>
</g>
<g>
</g>
<g>
</g>
<g>
</g>
<g>
</g>
<g>
</g>
<g>
</g>
<g>
</g>
<g>
</g>
<g>
</g>
<g>
</g>
<g>
</g>
<g>
</g>
<g>
</g>
</svg>
