<?xml version="1.0" encoding="iso-8859-1"?>
<!-- Generator: Adobe Illustrator 19.0.0, SVG Export Plug-In . SVG Version: 6.00 Build 0)  -->
<svg version="1.1" id="Layer_1" xmlns="http://www.w3.org/2000/svg" xmlns:xlink="http://www.w3.org/1999/xlink" x="0px" y="0px"
	 viewBox="0 0 512 512" style="enable-background:new 0 0 512 512;" xml:space="preserve">
<circle style="fill:#273B7A;" cx="256" cy="256" r="256"/>
<path style="fill:#121149;" d="M331.099,134.02c-23.066-1.017-43.911-13.19-64.755-17.656
	c-55.165-10.343-96.539,34.478-143.084,63.785c-4.196,2.798-10.661,5.311-16.863,7.885L89.207,205.59
	c4.339,43.47,21.925,89.976,20.261,134.88c0,6.946-10.662,11.059-20.444,16.46l154.829,154.774
	c4.027,0.188,8.075,0.295,12.147,0.295c123.092,0,225.876-86.88,250.418-202.661L331.099,134.02z"/>
<polygon style="fill:#386895;" points="108.708,342.347 79.548,196.553 224.894,109.344 230.217,118.212 91.119,201.669 
	118.848,340.32 "/>
<circle style="fill:#38C6D9;" cx="252.483" cy="118.936" r="33.595"/>
<path style="fill:#23B6C1;" d="M260.074,151.662c18.075-4.193,29.329-22.244,25.136-40.317c-4.036-17.398-20.911-28.432-38.288-25.5
	l12.488,65.936C259.631,151.735,259.851,151.714,260.074,151.662z"/>
<path style="fill:#FDE085;" d="M338.747,161.759l71.556,188.02H202.535l-3.424-165.042
	C199.111,184.737,318.433,158.967,338.747,161.759z"/>
<path style="fill:#FFC91B;" d="M338.747,161.759c-9.959-1.369-43.713,4.127-75.54,10.087l33.699,177.933h113.395L338.747,161.759z"
	/>
<path style="fill:#4479A5;" d="M185.034,218.448c-11.004-47.445,18.537-94.829,65.983-105.834s94.829,18.535,105.832,65.982
	L185.034,218.448z"/>
<path style="fill:#366695;" d="M251.954,112.421l16.42,86.695l88.474-20.521C345.917,131.463,299.084,102.019,251.954,112.421z"/>
<path style="fill:#386895;" d="M187.835,359.865H96.611c-6.228,0-11.278-5.049-11.278-11.278v-5.891
	c0-6.228,5.049-11.278,11.278-11.278h91.224c6.228,0,11.276,5.049,11.276,11.278v5.891
	C199.111,354.816,194.062,359.865,187.835,359.865z"/>
<g>
</g>
<g>
</g>
<g>
</g>
<g>
</g>
<g>
</g>
<g>
</g>
<g>
</g>
<g>
</g>
<g>
</g>
<g>
</g>
<g>
</g>
<g>
</g>
<g>
</g>
<g>
</g>
<g>
</g>
</svg>
